<svg width="240" height="55" viewBox="0 0 240 55" fill="none" xmlns="http://www.w3.org/2000/svg">
<g filter="url(#filter0_d_243_1556)">
<g clip-path="url(#clip0_243_1556)">
<path d="M8.57024 9.7972C1.18839 18.6814 2.96689 32.6841 12.3312 39.4557C20.9136 45.6617 31.8307 44.8936 39.4967 37.5062C39.9454 37.0752 40.1916 37.1119 40.6117 37.5062C42.193 39.0016 43.8084 40.4644 45.4645 41.9925C45.6753 41.6268 45.591 41.3318 45.5923 41.0531C45.6018 35.1557 45.5515 29.2582 45.6249 23.3621C45.697 17.4008 43.6438 12.3218 39.5063 8.08833C36.1437 4.64747 32.0102 2.62592 27.239 2.13651C19.6858 1.35888 13.4353 3.94326 8.57024 9.7972ZM30.6505 9.03453C36.6332 11.608 39.8231 16.2819 40.0189 22.8034C40.1548 27.4433 40.0393 32.0927 40.0352 37.0154C38.7639 35.8463 37.6625 34.8702 36.6087 33.8465C36.1736 33.4223 35.9289 33.3802 35.4353 33.8342C30.3323 38.5136 23.4998 39.3918 17.6232 36.1698C10.7811 32.4272 7.89446 23.5756 11.2434 16.6463C14.799 9.29147 23.3081 5.88052 30.6505 9.03453Z" fill="#F6921E"/>
<path d="M18.7833 22.8533C18.8556 22.8331 18.9323 22.8349 19.0036 22.8583C19.0749 22.8817 19.1377 22.9258 19.184 22.9849C19.2302 23.044 19.2579 23.1155 19.2635 23.1904C19.2691 23.2652 19.2524 23.34 19.2154 23.4054C19.1785 23.4707 19.1229 23.5236 19.0559 23.5574C18.9889 23.5912 18.9133 23.6043 18.8388 23.5951C18.7643 23.5859 18.6942 23.5548 18.6374 23.5058C18.5805 23.4567 18.5395 23.3919 18.5195 23.3196C18.4928 23.2228 18.5056 23.1193 18.555 23.0319C18.6045 22.9445 18.6866 22.8803 18.7833 22.8533Z" fill="#F5F5F5"/>
<path d="M27.2869 14.5333C27.2256 14.5497 27.1627 14.5592 27.0993 14.5619C27.0639 14.5836 27.0231 14.5619 26.9864 14.5768C26.984 14.5792 26.9811 14.5812 26.978 14.5825C26.9748 14.5838 26.9715 14.5845 26.968 14.5845C26.9646 14.5845 26.9612 14.5838 26.9581 14.5825C26.9549 14.5812 26.9521 14.5792 26.9497 14.5768H26.9116L26.8559 14.5877C26.6437 14.6461 26.4303 14.6992 26.2236 14.7753L25.9911 14.8664C25.5424 15.0732 25.1197 15.3324 24.732 15.6386C24.732 15.6603 24.7143 15.6603 24.7007 15.6644C24.6325 15.7366 24.5583 15.803 24.4791 15.8629C24.4641 15.8996 24.4125 15.8901 24.3989 15.9281C24.286 16.0886 24.1269 16.2109 24.0032 16.3632C23.8219 16.5889 23.6465 16.8227 23.477 17.0647C23.3777 17.2088 23.2894 17.361 23.2051 17.5106C23.0854 17.7145 22.9997 17.9388 22.9005 18.1536C22.9015 18.1567 22.9015 18.16 22.9005 18.1631C22.7876 18.4609 22.6761 18.7599 22.5877 19.0658C22.4939 19.3935 22.4055 19.7211 22.3267 20.0528C22.2879 20.2617 22.2376 20.4682 22.1758 20.6714C22.1758 20.685 22.1853 20.6999 22.1676 20.7094C22.1346 20.9316 22.0892 21.1517 22.0316 21.3688C21.9704 21.6733 21.9025 21.9778 21.8277 22.2797C21.7597 22.5515 21.6835 22.8234 21.5992 23.0953C21.5814 23.1816 21.5492 23.2644 21.5041 23.34C21.5057 23.3422 21.5066 23.3448 21.5066 23.3475C21.5066 23.3502 21.5057 23.3529 21.5041 23.355C21.2648 24.0497 20.8949 24.6587 20.2953 25.0992C19.4169 25.7477 18.4474 25.3643 17.977 24.8273C17.9721 24.8196 17.968 24.8114 17.9647 24.8029C17.9466 24.7926 17.9326 24.7762 17.9253 24.7566C17.8034 24.6109 17.711 24.4428 17.6534 24.2618L17.6207 24.153C17.6058 24.1316 17.5986 24.1057 17.6003 24.0796L17.5718 23.9505C17.4936 23.5663 17.5589 23.1668 17.7554 22.8275C17.8372 22.6646 17.9582 22.5245 18.1075 22.4197C18.1188 22.4005 18.1367 22.386 18.1578 22.3789C18.4019 22.1983 18.6959 22.0976 18.9995 22.0907C19.5049 22.0826 20.0044 22.2003 20.453 22.4333H20.4693L20.623 22.4877C20.7189 22.4947 20.8145 22.4698 20.8949 22.417C20.9373 22.3838 20.9719 22.3417 20.9962 22.2938C21.0206 22.2458 21.0342 22.1931 21.036 22.1393C21.0378 22.0855 21.0278 22.032 21.0068 21.9825C20.9857 21.933 20.954 21.8887 20.9139 21.8528L20.8936 21.8229C20.6706 21.7359 20.434 21.6869 20.2137 21.6121C19.9003 21.5087 19.5957 21.3805 19.3027 21.2288C19.0778 21.1122 18.8666 20.9708 18.6732 20.8073C18.4602 20.6197 18.2885 20.3899 18.1689 20.1325C18.0493 19.8751 17.9844 19.5957 17.9783 19.3119C17.9783 19.2575 17.9974 19.2018 17.9647 19.1501C17.961 19.1489 17.957 19.1485 17.953 19.149C17.9491 19.1496 17.9453 19.151 17.942 19.1533C17.9387 19.1555 17.936 19.1585 17.934 19.1619C17.9321 19.1654 17.931 19.1693 17.9308 19.1732C17.8712 19.4592 17.8489 19.7516 17.8641 20.0433C17.8785 20.1268 17.8975 20.2094 17.9212 20.2907C18.0118 20.671 18.2214 21.0125 18.5195 21.2655C18.6411 21.3765 18.7681 21.4813 18.9002 21.5795C18.9165 21.5918 18.9465 21.5931 18.9383 21.6257C18.9301 21.6584 18.9057 21.6502 18.8853 21.6543L18.5807 21.7114C18.481 21.7287 18.3832 21.7551 18.2884 21.7902C18.0539 21.8726 17.8365 21.997 17.6466 22.1573C17.4296 22.3477 17.2636 22.5893 17.1639 22.8602C17.1258 22.9594 17.0932 23.0614 17.0592 23.1633C17.0592 23.1769 17.0701 23.1932 17.051 23.2041C17.0283 23.3913 17.0179 23.5797 17.0198 23.7683C17.0464 23.9966 17.0947 24.222 17.1639 24.4412C17.2605 24.779 17.4488 25.0834 17.7078 25.3208C18.0387 25.6553 18.4746 25.866 18.9424 25.9176C18.9695 25.9159 18.9964 25.9236 19.0185 25.9394C19.0376 25.9394 19.0593 25.9163 19.077 25.9394C19.1604 25.9278 19.2451 25.9278 19.3285 25.9394C19.4928 25.9286 19.6549 25.8971 19.8112 25.8456C19.8643 25.832 19.92 25.8211 19.9744 25.8089L20.0111 25.7994C20.1335 25.7382 20.2531 25.6729 20.3782 25.6213C20.4272 25.6009 20.4516 25.5424 20.5142 25.5438C20.53 25.5219 20.5532 25.5065 20.5795 25.5003C20.7215 25.4003 20.8577 25.2923 20.9874 25.1767C21.2942 24.8701 21.5491 24.5157 21.742 24.1272C22.0364 23.5138 22.2643 22.8708 22.4219 22.209C22.6489 21.3634 22.8298 20.5055 23.0759 19.6654C23.3029 18.8213 23.6662 18.02 24.1514 17.2931C24.6278 16.5715 25.2838 15.9863 26.055 15.5951C26.736 15.2436 27.5177 15.1388 28.2672 15.2987C28.7651 15.3935 29.2133 15.6618 29.5319 16.0558C29.8506 16.4499 30.0192 16.9441 30.0077 17.4508C29.9945 18.0294 29.8475 18.5971 29.578 19.1093C29.5658 19.1405 29.5445 19.1671 29.5168 19.1858C29.4891 19.2045 29.4564 19.2144 29.423 19.214C28.7082 19.2572 28.004 19.4085 27.3345 19.6626C26.7642 19.868 26.2513 20.2069 25.8388 20.651C25.5382 20.962 25.3514 21.3653 25.3085 21.7957C25.2623 22.455 25.6947 22.8928 26.3555 22.8642C26.5161 22.8555 26.6748 22.8254 26.8273 22.7745C27.325 22.5974 27.7809 22.3198 28.1666 21.9588C28.8938 21.3369 29.5048 20.5907 29.971 19.7551C29.9913 19.717 30.0104 19.6912 30.0634 19.6966C30.4318 19.7253 30.792 19.8201 31.1267 19.9767C31.8977 20.3641 32.2226 21.0915 31.9996 21.9262C31.8944 22.3141 31.6992 22.6718 31.4299 22.9703C30.731 23.7588 29.8295 24.1367 28.7975 24.2359C28.0734 24.2939 27.3449 24.2117 26.6519 23.994C26.6179 23.9844 26.5839 23.9613 26.5404 24.0021C26.7525 24.0932 26.9565 24.1924 27.1686 24.2659C27.4335 24.3525 27.7071 24.4104 27.9844 24.4385C28.2642 24.4702 28.546 24.4816 28.8274 24.4725C28.943 24.4542 29.0602 24.4487 29.1769 24.4562C29.2552 24.4372 29.3347 24.4236 29.4148 24.4154C29.5707 24.3887 29.725 24.3538 29.8771 24.3107L30.0226 24.2727L30.4197 24.1476L30.4944 24.1136C30.508 24.0891 30.5352 24.0905 30.5556 24.081C30.6073 24.0347 30.678 24.0456 30.7351 24.0157C30.9999 23.8682 31.2535 23.7015 31.4938 23.5168C31.6329 23.4043 31.7616 23.2796 31.8786 23.1443C31.8902 23.1296 31.9051 23.1179 31.9221 23.1103L31.9616 23.0654C32.0268 22.9689 32.0975 22.871 32.1546 22.7731C32.2648 22.5985 32.356 22.4125 32.4266 22.2185C32.4198 22.1967 32.4266 22.1818 32.4443 22.1655C32.4989 21.9773 32.538 21.7849 32.5612 21.5904C32.5612 21.5714 32.5476 21.5496 32.5612 21.5306C32.5675 21.3013 32.5405 21.0723 32.481 20.8508C32.3504 20.4258 32.0928 20.051 31.7426 19.7768C31.5134 19.6062 31.2612 19.4689 30.9935 19.369C30.8643 19.326 30.732 19.2933 30.5978 19.2711C30.5815 19.2711 30.5597 19.2711 30.5475 19.2575C30.4577 19.2453 30.3693 19.2317 30.2755 19.2222C30.2334 19.2222 30.2225 19.2018 30.2429 19.161C30.2633 19.1202 30.2837 19.0645 30.3041 19.0169C30.3041 19.0006 30.3177 18.9979 30.3313 18.9951C30.3389 18.8883 30.3685 18.7841 30.4183 18.6893C30.4591 18.5642 30.4849 18.435 30.5244 18.3086C30.5719 18.1577 30.5842 17.9986 30.6168 17.845C30.6168 17.8233 30.6236 17.8015 30.6277 17.7798C30.6386 17.6085 30.659 17.4358 30.6576 17.2632C30.6503 17.1133 30.6349 16.964 30.6114 16.8159C30.6019 16.7438 30.5883 16.6799 30.576 16.6038C30.5638 16.5277 30.5461 16.4937 30.5325 16.4393C30.3891 15.9762 30.1237 15.5602 29.7643 15.2348L29.3672 14.948C29.3556 14.9467 29.3443 14.9432 29.3341 14.9376C29.3238 14.932 29.3147 14.9245 29.3074 14.9153L28.9213 14.7332C28.9095 14.7351 28.8975 14.734 28.8863 14.73C28.8751 14.7259 28.8651 14.7191 28.8574 14.71C28.5243 14.5999 28.1773 14.5376 27.8267 14.5252C27.6472 14.5143 27.4677 14.5224 27.2869 14.5333ZM28.8193 20.2975C28.4015 20.8588 27.9083 21.3597 27.3535 21.7862C27.0902 21.9989 26.7804 22.1465 26.4493 22.2171C25.9925 22.296 25.7409 22.0118 25.881 21.5686C25.9999 21.2434 26.2111 20.96 26.4887 20.753C26.8679 20.4494 27.2979 20.2156 27.7587 20.0623C28.2053 19.9076 28.6663 19.7983 29.1347 19.7361C29.1565 19.7361 29.1782 19.7361 29.2218 19.7279C29.0899 19.9373 28.958 20.1194 28.8193 20.2975Z" fill="#F5F5F5"/>
<path d="M21.5838 24.8529H21.5801V24.8491L21.5838 24.8529Z" fill="#F5F5F5"/>
<path d="M26.3876 24.2075C26.3118 24.1084 26.2479 24.0007 26.1972 23.8867C26.4079 24.0672 26.6094 24.2582 26.8009 24.459C26.943 24.622 27.0743 24.7941 27.1939 24.9742L27.202 24.9946L27.4631 25.4637L27.512 25.5683C27.5115 25.5787 27.5141 25.589 27.5194 25.598C27.5247 25.6069 27.5326 25.6141 27.542 25.6186L27.5583 25.673L27.6643 25.9449C27.6616 25.9514 27.6614 25.9587 27.664 25.9653C27.6665 25.9719 27.6715 25.9773 27.6779 25.9803C27.7133 26.1067 27.7486 26.2345 27.7853 26.3609C27.8492 26.5798 27.8778 26.8068 27.9213 27.0311C27.9213 27.0556 27.9281 27.0787 27.9308 27.1032C27.9335 27.1277 27.9308 27.1331 27.9308 27.1481C27.9539 27.3656 27.9716 27.5817 27.973 27.8006L27.9811 27.8808C27.9748 27.8952 27.9702 27.9102 27.9675 27.9257C27.968 28.3127 27.9274 28.6987 27.8465 29.0772C27.8465 29.0772 27.8465 29.0908 27.8465 29.0976C27.7772 29.3798 27.6937 29.6584 27.5963 29.9323C27.5447 30.0424 27.4984 30.1552 27.4386 30.2613C27.323 30.4734 27.2333 30.7058 27.0307 30.8594C26.9857 30.9036 26.9297 30.9349 26.8685 30.9502C26.8073 30.9655 26.7431 30.9642 26.6826 30.9465C26.6221 30.9288 26.5674 30.8952 26.5241 30.8493C26.4809 30.8035 26.4506 30.7469 26.4365 30.6854C26.4033 30.5433 26.361 30.4035 26.3101 30.2667C26.3101 30.2314 26.2733 30.2137 26.2598 30.1811C26.1814 29.9652 26.0391 29.7784 25.8518 29.6454C25.8499 29.6401 25.8467 29.6354 25.8423 29.6318C25.84 29.618 25.8346 29.6049 25.8267 29.5934C25.8187 29.5818 25.8082 29.5722 25.7961 29.5652L25.5241 29.3803C25.352 29.2687 25.1699 29.1731 24.9803 29.0948C24.7233 28.9825 24.4605 28.884 24.193 28.7998C24.1919 28.7974 24.1902 28.7952 24.1882 28.7935C24.1862 28.7917 24.1838 28.7904 24.1812 28.7897C24.1787 28.7889 24.176 28.7887 24.1733 28.789C24.1706 28.7894 24.1681 28.7903 24.1658 28.7917C24.1564 28.7791 24.1446 28.7685 24.1311 28.7605C24.1175 28.7526 24.1025 28.7475 24.0869 28.7455C23.951 28.7251 23.815 28.6503 23.679 28.6258C23.6712 28.6161 23.6608 28.6087 23.6491 28.6044C23.6374 28.6001 23.6247 28.599 23.6124 28.6013C23.5383 28.5513 23.4544 28.5175 23.3663 28.5021C23.2303 28.4504 23.1052 28.3961 22.9747 28.343L22.9543 28.3308C22.8414 28.2819 22.749 28.1949 22.6321 28.1568C22.6253 28.131 22.6049 28.1242 22.5831 28.1174C22.4934 28.0508 22.3982 27.9909 22.3112 27.9162C22.1221 27.7421 21.9471 27.5535 21.7877 27.352C21.784 27.3317 21.7762 27.3125 21.7647 27.2954C21.7532 27.2783 21.7384 27.2638 21.7211 27.2527C21.7211 27.1943 21.6653 27.1617 21.6422 27.1168C21.596 27.0121 21.5361 26.9129 21.4817 26.8109C21.4722 26.7756 21.4641 26.7402 21.4545 26.7049C21.4573 26.6917 21.4566 26.678 21.4526 26.6651C21.4485 26.6523 21.4412 26.6407 21.4314 26.6315L21.3539 26.3405C21.3577 26.3307 21.359 26.32 21.3575 26.3096C21.3561 26.2991 21.3521 26.2892 21.3458 26.2807C21.3458 26.244 21.3322 26.2073 21.3267 26.1719C21.2643 25.7203 21.3482 25.2606 21.566 24.86C21.566 24.86 21.5742 24.86 21.5796 24.8519C21.6028 25.0001 21.5796 25.1496 21.6109 25.2978C21.6276 25.4095 21.6596 25.5184 21.7061 25.6214C21.7459 25.7147 21.8148 25.7926 21.9025 25.8436C21.9902 25.8945 22.0921 25.9158 22.1929 25.9041C22.3091 25.8994 22.4227 25.8678 22.5246 25.8117C22.582 25.7949 22.6365 25.7697 22.6864 25.7369C23.1801 25.435 23.5957 25.0209 23.8993 24.5283C24.1418 24.1905 24.2833 23.7907 24.3072 23.3755C24.4194 23.7119 24.4419 24.0718 24.3725 24.4196C24.2422 24.9895 23.9488 25.5091 23.5281 25.915C23.3581 26.0917 23.1664 26.2454 22.9842 26.4058C22.7626 26.554 22.5464 26.7089 22.3112 26.8367C22.2568 26.8666 22.3016 26.887 22.3193 26.9061C22.4902 27.0956 22.6973 27.2491 22.9285 27.3574C23.1267 27.4512 23.3444 27.4965 23.5636 27.4894C23.7828 27.4823 23.9972 27.4231 24.1889 27.3166C24.2769 27.283 24.3597 27.2372 24.435 27.1807C24.9022 26.8487 25.2687 26.3943 25.4942 25.8674C25.6525 25.5404 25.733 25.1812 25.7295 24.8179C25.7172 24.767 25.7172 24.7138 25.7295 24.6629C25.8248 24.882 25.8805 25.1163 25.894 25.3549C25.9153 25.9378 25.7432 26.5113 25.4045 26.9863C25.2441 27.2191 25.0663 27.4395 24.8728 27.6456L24.3548 28.1106C24.4377 28.1418 24.5057 28.1731 24.5778 28.1935C24.7568 28.2547 24.9463 28.2789 25.1349 28.2647C25.3236 28.2504 25.5073 28.198 25.6751 28.1106C25.7118 28.0929 25.7512 28.0779 25.7852 28.0576C26.1476 27.8293 26.4299 27.4938 26.5929 27.0978C26.6066 27.0391 26.6357 26.9851 26.6772 26.9414C26.7274 27.1987 26.7105 27.4647 26.6282 27.7136C26.528 27.9994 26.3733 28.263 26.1727 28.4899L25.9008 28.7618C25.9354 28.7713 25.9691 28.7841 26.0014 28.7998C26.2828 28.9622 26.5354 29.1698 26.7492 29.4143C26.7808 29.4659 26.8208 29.5118 26.8675 29.5503C26.9124 29.5231 26.9178 29.4714 26.9382 29.4306C27.4263 28.4529 27.5501 27.3333 27.2877 26.2725C27.1019 25.5398 26.7979 24.8423 26.3876 24.2075Z" fill="#F5F5F5"/>
<path d="M26.1953 23.889V23.8853L26.1991 23.889H26.1953Z" fill="#F5F5F5"/>
<path d="M19.2491 23.117C19.2653 23.1658 19.2715 23.2174 19.2671 23.2686C19.2628 23.3198 19.2481 23.3697 19.2239 23.4151C19.1998 23.4604 19.1666 23.5004 19.1265 23.5326C19.0864 23.5648 19.0401 23.5885 18.9906 23.6022C18.941 23.616 18.8892 23.6195 18.8382 23.6126C18.7872 23.6057 18.7382 23.5885 18.6941 23.562C18.65 23.5356 18.6117 23.5005 18.5816 23.4588C18.5515 23.4171 18.5302 23.3697 18.5189 23.3195C18.4977 23.2246 18.5137 23.1251 18.5637 23.0417C18.6138 22.9583 18.6939 22.8972 18.7877 22.8712C18.8815 22.8452 18.9816 22.8562 19.0675 22.902C19.1534 22.9477 19.2184 23.0247 19.2491 23.117Z" fill="#F5F5F5"/>
<path d="M24.7537 22.8152C25.2639 23.043 25.7228 23.3718 26.1025 23.7818C26.1242 23.8035 26.1446 23.828 26.1664 23.8511C26.1881 23.8742 26.1664 23.8851 26.1949 23.8865C26.2456 24.0005 26.3095 24.1082 26.3853 24.2073C26.7961 24.8452 27.0997 25.5459 27.2841 26.2819C27.5465 27.3426 27.4226 28.4622 26.9346 29.4399C26.9142 29.4807 26.9088 29.5324 26.8639 29.5596C26.8381 29.4889 26.815 29.4236 26.7878 29.3489C26.6477 29.0229 26.4373 28.7318 26.1718 28.4965C26.3724 28.2696 26.5271 28.006 26.6273 27.7202C26.7096 27.4713 26.7265 27.2053 26.6763 26.948C26.6348 26.9917 26.6057 27.0457 26.592 27.1044C26.429 27.5004 26.1467 27.8359 25.7843 28.0642C25.7503 28.0845 25.7109 28.0995 25.6742 28.1172C25.647 28.0968 25.6198 28.075 25.5912 28.056C25.3587 27.9092 25.1181 27.7759 24.8719 27.6481C25.0654 27.442 25.2432 27.2216 25.4036 26.9888C25.7422 26.5139 25.9143 25.9403 25.8931 25.3574C25.8796 25.1188 25.8239 24.8845 25.7286 24.6654C25.7163 24.7164 25.7163 24.7695 25.7286 24.8204C25.7321 25.1837 25.6516 25.5429 25.4933 25.8699C25.2678 26.3968 24.9013 26.8512 24.4341 27.1832C24.3588 27.2397 24.276 27.2855 24.188 27.3192L24.0656 27.2471C23.6615 27.026 23.2945 26.7429 22.9779 26.4083C23.1628 26.2479 23.3545 26.0943 23.5218 25.9175C23.9425 25.5116 24.2359 24.992 24.3661 24.4221C24.4356 24.0743 24.4131 23.7144 24.3009 23.378C24.2769 23.7932 24.1354 24.193 23.893 24.5309C23.5893 25.0234 23.1738 25.4375 22.6801 25.7394C22.6302 25.7722 22.5756 25.7974 22.5183 25.8142C22.1947 25.2473 22.0438 24.6464 22.2069 24.0007C22.3796 23.3209 22.7943 22.8519 23.4918 22.6806C23.9159 22.5864 24.359 22.6337 24.7537 22.8152Z" fill="#F6921E"/>
</g>
<path d="M105.609 12.3139C107.589 14.3267 108.579 17.0946 108.579 20.6175V36.8879C108.579 36.9345 108.561 36.9792 108.528 37.0121C108.495 37.045 108.45 37.0635 108.403 37.0635H100.12C100.073 37.0635 100.029 37.045 99.9959 37.0121C99.963 36.9792 99.9445 36.9345 99.9445 36.8879V21.717C99.9445 20.1052 99.5684 18.8493 98.8162 17.9494C98.065 17.0543 97.0116 16.6024 95.6502 16.6024C94.1478 16.6024 92.9562 17.1157 92.0755 18.1422C91.1948 19.1688 90.7563 20.5254 90.7601 22.212V36.8908C90.7601 36.9374 90.7417 36.982 90.7087 37.015C90.6758 37.0479 90.6311 37.0664 90.5846 37.0664H82.1802V21.717C82.1802 20.1052 81.8138 18.8493 81.0808 17.9494C80.3468 17.06 79.302 16.6024 77.9464 16.6024C76.4402 16.6024 75.239 17.1157 74.3429 18.1422C73.4468 19.1688 72.9978 20.5254 72.9959 22.212V37.0635H64.3613V10.5035C64.3613 10.3422 64.4252 10.1874 64.539 10.0731C64.6528 9.9587 64.8073 9.89408 64.9686 9.89332H71.3237C71.468 9.89338 71.6076 9.9446 71.7178 10.0379C71.8279 10.1311 71.9014 10.2604 71.9252 10.4028L72.1325 11.6836C72.1503 11.7938 72.1982 11.897 72.2708 11.9818C72.3435 12.0665 72.4381 12.1297 72.5443 12.1642C72.6505 12.1987 72.7641 12.2032 72.8728 12.1773C72.9814 12.1515 73.0808 12.0961 73.16 12.0174C73.9245 11.2776 74.808 10.6714 75.7734 10.2243C77.1255 9.59693 78.6001 9.27744 80.0907 9.2889C81.7367 9.26208 83.363 9.65009 84.8196 10.4172C86.1023 11.092 87.1919 12.0826 87.9856 13.2953C88.0026 13.3219 88.0256 13.3441 88.0529 13.36C88.0801 13.3759 88.1108 13.3851 88.1423 13.3868C88.1738 13.3884 88.2053 13.3826 88.2341 13.3697C88.2629 13.3568 88.2882 13.3372 88.3079 13.3126C90.4896 10.6301 93.5405 9.2889 97.4606 9.2889C100.914 9.2889 103.63 10.2972 105.609 12.3139Z" fill="#F5F5F5"/>
<path d="M120.197 35.8793C118.024 34.757 116.224 33.027 115.016 30.9C113.808 28.7759 113.203 26.3016 113.203 23.4771C113.203 20.6526 113.808 18.1774 115.016 16.0514C116.225 13.9258 118.025 12.197 120.197 11.075C122.459 9.88338 125.094 9.2876 128.101 9.2876C131.107 9.2876 133.75 9.88338 136.027 11.075C138.214 12.1898 140.028 13.9195 141.245 16.0514C142.454 18.1793 143.059 20.6546 143.059 23.4771C143.059 26.2997 142.454 28.774 141.245 30.9C140.029 33.0334 138.215 34.7642 136.027 35.8793C133.753 37.0708 131.114 37.6666 128.109 37.6666C125.104 37.6666 122.467 37.0708 120.197 35.8793ZM132.72 28.4276C133.893 27.1439 134.479 25.4938 134.479 23.4771C134.479 21.4605 133.893 19.8103 132.72 18.5266C131.546 17.2429 130.011 16.6011 128.115 16.6011C126.244 16.6011 124.723 17.2429 123.55 18.5266C122.378 19.8103 121.791 21.4605 121.789 23.4771C121.789 25.4957 122.376 27.1459 123.55 28.4276C124.725 29.7094 126.246 30.3502 128.115 30.3502C130.011 30.3502 131.546 29.7094 132.72 28.4276Z" fill="#F5F5F5"/>
<path d="M175.287 11.0688V35.8846C175.288 36.039 175.258 36.1921 175.199 36.3349C175.14 36.4777 175.054 36.6075 174.944 36.7168C174.835 36.8262 174.706 36.9129 174.563 36.9721C174.42 37.0313 174.267 37.0618 174.113 37.0618H168.299C168.161 37.0636 168.027 37.0157 167.921 36.927C167.816 36.8382 167.746 36.7145 167.723 36.5782L167.459 35.0672C167.443 34.9622 167.398 34.8636 167.33 34.7823C167.262 34.701 167.173 34.6402 167.072 34.6065C166.971 34.5729 166.863 34.5677 166.76 34.5916C166.656 34.6155 166.562 34.6675 166.486 34.742C165.612 35.5677 164.599 36.2314 163.493 36.702C161.954 37.355 160.297 37.6833 158.625 37.6662C155.287 37.6662 152.628 36.5658 150.65 34.3649C148.672 32.164 147.682 29.1208 147.68 25.2353V11.0688C147.68 10.7566 147.804 10.4572 148.024 10.2364C148.245 10.0156 148.545 9.8916 148.857 9.8916H155.14C155.452 9.89236 155.75 10.0167 155.971 10.2374C156.191 10.4581 156.314 10.7571 156.314 11.0688V24.7402C156.314 26.5017 156.745 27.8765 157.607 28.8647C158.468 29.8529 159.651 30.3479 161.155 30.3498C161.907 30.3781 162.655 30.2376 163.345 29.9388C164.034 29.64 164.648 29.1903 165.142 28.6229C166.149 27.4716 166.653 25.9778 166.653 24.1416V11.0688C166.653 10.7566 166.777 10.4572 166.998 10.2364C167.218 10.0156 167.518 9.8916 167.83 9.8916H174.113C174.267 9.8916 174.42 9.92207 174.563 9.98126C174.706 10.0405 174.835 10.1272 174.944 10.2366C175.054 10.3459 175.14 10.4757 175.199 10.6185C175.258 10.7613 175.288 10.9143 175.287 11.0688Z" fill="#F5F5F5"/>
<path d="M200.973 9.97584C201.849 10.2944 202.673 10.7416 203.417 11.3027C203.646 11.4775 203.804 11.7299 203.862 12.0126C203.919 12.2954 203.871 12.5894 203.728 12.8396L201.172 17.2893C201.024 17.548 200.783 17.7409 200.498 17.829C200.214 17.9171 199.906 17.894 199.638 17.7642C199.257 17.5671 198.861 17.3997 198.455 17.2634C197.781 17.0404 197.075 16.9286 196.365 16.9324C194.533 16.9324 193.084 17.5186 192.019 18.691C190.954 19.8634 190.423 21.5903 190.425 23.8718V35.8739C190.425 36.0298 190.395 36.1843 190.335 36.3285C190.276 36.4727 190.189 36.6038 190.078 36.7142C189.968 36.8246 189.837 36.9122 189.693 36.972C189.549 37.0318 189.395 37.0625 189.239 37.0625H182.964C182.652 37.058 182.354 36.9308 182.135 36.7083C181.916 36.4859 181.793 36.1861 181.793 35.8739V11.0782C181.794 10.7639 181.919 10.4627 182.141 10.2405C182.363 10.0183 182.665 9.89313 182.979 9.89237H188.845C188.976 9.89366 189.104 9.94009 189.205 10.0239C189.307 10.1077 189.377 10.2238 189.403 10.3529L189.728 12.0395C189.752 12.1432 189.803 12.2384 189.878 12.3145C189.952 12.3906 190.046 12.4446 190.149 12.4705C190.252 12.4965 190.361 12.4933 190.462 12.4614C190.564 12.4296 190.654 12.3702 190.724 12.2899C191.506 11.3236 192.499 10.5503 193.628 10.0297C194.756 9.50911 195.989 9.25531 197.232 9.28795C198.51 9.29402 199.777 9.52693 200.973 9.97584Z" fill="#F6921E"/>
<path d="M227.809 9.89161H233.312C233.603 9.89133 233.89 9.96352 234.146 10.1017C234.402 10.2398 234.62 10.4396 234.779 10.6829C234.939 10.9262 235.036 11.2055 235.06 11.4954C235.085 11.7854 235.037 12.077 234.921 12.3438L219.497 47.7744C219.361 48.088 219.137 48.3551 218.852 48.5428C218.567 48.7305 218.232 48.8306 217.891 48.8307H212.526C212.235 48.831 211.948 48.7588 211.692 48.6207C211.436 48.4825 211.218 48.2828 211.059 48.0394C210.899 47.7961 210.802 47.5169 210.778 47.2269C210.753 46.9369 210.801 46.6454 210.917 46.3785L214.843 37.341C215.027 36.9144 215.035 36.4323 214.866 35.9997L205.408 12.01C205.316 11.7751 205.282 11.5214 205.31 11.2707C205.338 11.02 205.427 10.7799 205.569 10.5712C205.711 10.3625 205.901 10.1916 206.124 10.0731C206.347 9.95471 206.595 9.8924 206.847 9.89161H212.638C212.997 9.89161 213.348 10.0021 213.643 10.208C213.937 10.4139 214.161 10.7054 214.284 11.0429L216.999 18.4715L219.33 25.4051C219.377 25.5425 219.465 25.6619 219.583 25.747C219.701 25.8321 219.842 25.8786 219.987 25.8802C220.132 25.8818 220.274 25.8383 220.394 25.7558C220.513 25.6733 220.604 25.5558 220.654 25.4195L223.161 18.46L226.183 10.9767C226.316 10.655 226.541 10.3801 226.831 10.1869C227.121 9.99366 227.461 9.89089 227.809 9.89161Z" fill="#F6921E"/>
</g>
<defs>
<filter id="filter0_d_243_1556" x="0" y="0" width="239.066" height="54.8306" filterUnits="userSpaceOnUse" color-interpolation-filters="sRGB">
<feFlood flood-opacity="0" result="BackgroundImageFix"/>
<feColorMatrix in="SourceAlpha" type="matrix" values="0 0 0 0 0 0 0 0 0 0 0 0 0 0 0 0 0 0 127 0" result="hardAlpha"/>
<feOffset dy="2"/>
<feGaussianBlur stdDeviation="2"/>
<feComposite in2="hardAlpha" operator="out"/>
<feColorMatrix type="matrix" values="0 0 0 0 0 0 0 0 0 0 0 0 0 0 0 0 0 0 0.25 0"/>
<feBlend mode="normal" in2="BackgroundImageFix" result="effect1_dropShadow_243_1556"/>
<feBlend mode="normal" in="SourceGraphic" in2="effect1_dropShadow_243_1556" result="shape"/>
</filter>
<clipPath id="clip0_243_1556">
<rect width="41.6274" height="41.6274" fill="white" transform="translate(4 2)"/>
</clipPath>
</defs>
</svg>
