<svg width="568" height="519" viewBox="0 0 568 519" fill="none" xmlns="http://www.w3.org/2000/svg">
<g filter="url(#filter0_d_60_2675)">
<g clip-path="url(#clip0_60_2675)">
<path d="M163.029 61.1852C107.508 128.625 120.884 234.919 191.316 286.321C255.868 333.431 337.978 327.6 395.637 271.523C399.012 268.251 400.863 268.53 404.023 271.523C415.916 282.875 428.066 293.979 440.522 305.578C442.107 302.802 441.473 300.563 441.483 298.447C441.555 253.68 441.177 208.913 441.729 164.156C442.271 118.904 426.828 80.349 395.708 48.2133C370.418 22.0939 339.328 6.74841 303.442 3.0333C246.633 -2.86961 199.62 16.7483 163.029 61.1852ZM329.101 55.3958C374.099 74.9312 398.091 110.411 399.564 159.914C400.586 195.136 399.717 230.429 399.687 267.797C390.125 258.922 381.841 251.513 373.915 243.742C370.643 240.522 368.802 240.202 365.089 243.649C326.708 279.17 275.319 285.836 231.119 261.378C179.658 232.968 157.946 165.776 183.135 113.176C209.878 57.3463 273.877 31.454 329.101 55.3958Z" fill="#F6921E"/>
<path d="M239.842 160.295C240.386 160.142 240.963 160.155 241.499 160.333C242.036 160.511 242.508 160.845 242.856 161.294C243.204 161.743 243.412 162.286 243.454 162.854C243.496 163.422 243.37 163.99 243.092 164.486C242.814 164.982 242.397 165.383 241.892 165.64C241.388 165.896 240.82 165.996 240.259 165.926C239.699 165.856 239.172 165.62 238.744 165.248C238.317 164.876 238.009 164.384 237.858 163.835C237.657 163.1 237.753 162.315 238.125 161.651C238.497 160.987 239.115 160.5 239.842 160.295Z" fill="#333333"/>
<path d="M303.801 97.138C303.34 97.262 302.867 97.3347 302.39 97.3547C302.124 97.5198 301.817 97.3547 301.541 97.4683C301.523 97.4867 301.501 97.5013 301.478 97.5112C301.454 97.5212 301.429 97.5263 301.403 97.5263C301.377 97.5263 301.352 97.5212 301.328 97.5112C301.304 97.5013 301.283 97.4867 301.265 97.4683H300.979L300.559 97.5508C298.964 97.9946 297.358 98.397 295.804 98.9749L294.055 99.6664C290.68 101.236 287.501 103.204 284.585 105.528C284.585 105.693 284.452 105.693 284.35 105.724C283.836 106.272 283.279 106.776 282.683 107.231C282.57 107.509 282.182 107.437 282.079 107.726C281.231 108.944 280.034 109.873 279.103 111.028C277.74 112.742 276.421 114.517 275.146 116.353C274.399 117.447 273.734 118.603 273.1 119.738C272.2 121.286 271.556 122.989 270.81 124.62C270.817 124.643 270.817 124.668 270.81 124.692C269.961 126.952 269.122 129.222 268.457 131.544C267.752 134.031 267.087 136.518 266.494 139.036C266.203 140.622 265.824 142.189 265.359 143.732C265.359 143.835 265.43 143.949 265.297 144.021C265.049 145.707 264.707 147.378 264.275 149.026C263.814 151.337 263.303 153.649 262.741 155.94C262.229 158.004 261.657 160.068 261.023 162.132C260.888 162.787 260.646 163.415 260.307 163.99C260.319 164.006 260.326 164.026 260.326 164.046C260.326 164.067 260.319 164.087 260.307 164.103C258.507 169.376 255.725 174 251.215 177.343C244.609 182.266 237.317 179.356 233.778 175.279C233.742 175.221 233.711 175.158 233.686 175.094C233.55 175.016 233.444 174.891 233.39 174.743C232.473 173.637 231.778 172.361 231.344 170.986L231.099 170.161C230.987 169.998 230.933 169.801 230.946 169.603L230.731 168.623C230.143 165.707 230.634 162.674 232.111 160.099C232.727 158.862 233.637 157.798 234.76 157.003C234.845 156.857 234.98 156.747 235.139 156.693C236.974 155.322 239.186 154.558 241.469 154.506C245.27 154.444 249.027 155.338 252.401 157.106H252.524L253.68 157.519C254.401 157.573 255.121 157.384 255.725 156.982C256.044 156.731 256.304 156.411 256.487 156.047C256.671 155.683 256.773 155.283 256.786 154.875C256.8 154.467 256.725 154.06 256.566 153.684C256.408 153.309 256.169 152.973 255.868 152.7L255.715 152.473C254.038 151.812 252.258 151.441 250.601 150.873C248.245 150.088 245.953 149.115 243.75 147.963C242.058 147.078 240.47 146.005 239.015 144.764C237.413 143.339 236.121 141.595 235.222 139.641C234.322 137.687 233.834 135.566 233.789 133.412C233.789 132.999 233.932 132.576 233.686 132.184C233.658 132.174 233.628 132.172 233.598 132.176C233.569 132.18 233.54 132.191 233.516 132.208C233.491 132.225 233.47 132.247 233.456 132.274C233.441 132.3 233.432 132.329 233.431 132.359C232.983 134.53 232.815 136.75 232.93 138.964C233.038 139.598 233.181 140.225 233.359 140.842C234.04 143.729 235.617 146.321 237.859 148.242C238.773 149.084 239.729 149.88 240.722 150.625C240.845 150.718 241.07 150.729 241.009 150.976C240.947 151.224 240.763 151.162 240.61 151.193L238.319 151.626C237.57 151.758 236.834 151.958 236.12 152.225C234.357 152.851 232.721 153.795 231.293 155.011C229.661 156.456 228.413 158.291 227.663 160.347C227.376 161.1 227.131 161.874 226.875 162.648C226.875 162.751 226.957 162.875 226.814 162.958C226.643 164.378 226.565 165.809 226.579 167.24C226.779 168.974 227.142 170.684 227.663 172.349C228.39 174.912 229.805 177.223 231.754 179.025C234.243 181.565 237.521 183.164 241.039 183.556C241.243 183.543 241.446 183.601 241.612 183.721C241.755 183.721 241.919 183.545 242.052 183.721C242.68 183.633 243.316 183.633 243.944 183.721C245.179 183.639 246.399 183.4 247.574 183.009C247.973 182.906 248.392 182.823 248.802 182.73L249.078 182.658C249.998 182.194 250.898 181.698 251.839 181.306C252.207 181.151 252.391 180.708 252.862 180.718C252.981 180.552 253.155 180.435 253.352 180.388C254.421 179.629 255.445 178.809 256.421 177.932C258.728 175.604 260.645 172.914 262.096 169.965C264.31 165.309 266.025 160.427 267.21 155.403C268.918 148.985 270.278 142.473 272.129 136.095C273.836 129.688 276.568 123.606 280.218 118.087C283.801 112.61 288.735 108.168 294.536 105.198C299.658 102.53 305.537 101.735 311.175 102.948C314.919 103.668 318.29 105.704 320.687 108.695C323.084 111.686 324.352 115.439 324.265 119.284C324.166 123.677 323.06 127.986 321.033 131.874C320.942 132.111 320.781 132.313 320.573 132.455C320.365 132.597 320.119 132.672 319.867 132.669C314.491 132.997 309.195 134.145 304.159 136.075C299.87 137.634 296.012 140.206 292.91 143.577C290.649 145.938 289.243 148.999 288.921 152.266C288.573 157.271 291.826 160.594 296.796 160.378C298.004 160.312 299.197 160.083 300.344 159.696C304.088 158.352 307.517 156.245 310.418 153.505C315.888 148.784 320.483 143.119 323.989 136.776C324.142 136.487 324.285 136.291 324.684 136.333C327.455 136.55 330.164 137.27 332.682 138.458C338.48 141.4 340.924 146.921 339.247 153.257C338.456 156.202 336.988 158.917 334.962 161.183C329.706 167.168 322.925 170.037 315.163 170.79C309.717 171.23 304.238 170.606 299.025 168.953C298.77 168.881 298.514 168.706 298.187 169.015C299.782 169.707 301.316 170.46 302.911 171.017C304.904 171.675 306.961 172.115 309.047 172.328C311.152 172.569 313.271 172.655 315.388 172.586C316.257 172.447 317.138 172.405 318.016 172.462C318.605 172.318 319.203 172.215 319.806 172.152C320.978 171.95 322.139 171.685 323.283 171.358L324.377 171.069L327.364 170.119L327.926 169.861C328.028 169.676 328.233 169.686 328.386 169.614C328.775 169.263 329.307 169.345 329.736 169.118C331.728 167.999 333.635 166.733 335.443 165.331C336.489 164.477 337.457 163.531 338.337 162.503C338.424 162.392 338.536 162.304 338.664 162.245L338.961 161.905C339.452 161.172 339.983 160.429 340.413 159.686C341.242 158.36 341.927 156.949 342.458 155.476C342.407 155.311 342.458 155.197 342.591 155.073C343.002 153.645 343.296 152.185 343.471 150.708C343.471 150.563 343.368 150.398 343.471 150.254C343.518 148.514 343.315 146.775 342.867 145.094C341.886 141.868 339.947 139.022 337.314 136.941C335.59 135.646 333.693 134.604 331.679 133.845C330.708 133.519 329.713 133.271 328.703 133.102C328.581 133.102 328.417 133.102 328.325 132.999C327.65 132.906 326.985 132.803 326.28 132.731C325.963 132.731 325.881 132.576 326.034 132.267C326.188 131.957 326.341 131.534 326.494 131.173C326.494 131.049 326.597 131.028 326.699 131.008C326.756 130.196 326.979 129.406 327.353 128.686C327.66 127.736 327.854 126.756 328.151 125.796C328.509 124.651 328.601 123.443 328.846 122.277C328.846 122.112 328.898 121.947 328.928 121.782C329.01 120.481 329.164 119.171 329.153 117.86C329.099 116.723 328.983 115.589 328.806 114.465C328.734 113.918 328.632 113.433 328.54 112.855C328.448 112.277 328.315 112.019 328.212 111.606C327.133 108.091 325.138 104.933 322.434 102.463L319.448 100.286C319.361 100.276 319.276 100.25 319.198 100.207C319.121 100.165 319.053 100.107 318.998 100.038L316.094 98.655C316.005 98.6699 315.915 98.6615 315.831 98.6308C315.746 98.6001 315.671 98.548 315.613 98.4796C313.108 97.6434 310.498 97.1708 307.861 97.0761C306.511 96.9935 305.161 97.0555 303.801 97.138ZM315.327 140.894C312.185 145.155 308.475 148.957 304.302 152.194C302.322 153.809 299.992 154.929 297.501 155.465C294.065 156.064 292.173 153.907 293.227 150.543C294.122 148.074 295.71 145.923 297.798 144.351C300.65 142.047 303.884 140.272 307.35 139.109C310.708 137.934 314.176 137.105 317.699 136.632C317.863 136.632 318.027 136.632 318.354 136.57C317.362 138.159 316.37 139.542 315.327 140.894Z" fill="white"/>
<path d="M260.895 175.46H260.879V175.444L260.895 175.46Z" fill="white"/>
<path d="M297.031 170.574C296.461 169.821 295.98 169.004 295.599 168.138C297.184 169.509 298.699 170.959 300.14 172.483C301.208 173.72 302.196 175.026 303.095 176.394L303.156 176.549L305.12 180.109L305.488 180.904C305.484 180.983 305.504 181.061 305.544 181.129C305.584 181.197 305.643 181.251 305.713 181.285L305.836 181.698L306.634 183.762C306.613 183.812 306.612 183.867 306.631 183.917C306.65 183.967 306.688 184.008 306.736 184.031C307.002 184.99 307.268 185.96 307.544 186.92C308.024 188.582 308.239 190.305 308.566 192.008C308.566 192.193 308.618 192.369 308.638 192.555C308.658 192.74 308.638 192.782 308.638 192.895C308.812 194.546 308.945 196.187 308.955 197.849L309.016 198.458C308.968 198.566 308.934 198.681 308.914 198.798C308.918 201.736 308.613 204.666 308.004 207.539C308.004 207.539 308.004 207.642 308.004 207.694C307.483 209.836 306.855 211.951 306.122 214.03C305.734 214.866 305.386 215.723 304.936 216.527C304.067 218.137 303.392 219.902 301.868 221.068C301.529 221.403 301.108 221.641 300.648 221.757C300.188 221.873 299.705 221.863 299.25 221.729C298.795 221.594 298.383 221.34 298.058 220.991C297.733 220.643 297.505 220.214 297.399 219.747C297.149 218.669 296.831 217.607 296.448 216.569C296.448 216.3 296.172 216.166 296.069 215.919C295.48 214.28 294.41 212.862 293.001 211.853C292.987 211.812 292.962 211.777 292.93 211.749C292.912 211.644 292.872 211.545 292.812 211.457C292.752 211.37 292.673 211.297 292.582 211.244L290.537 209.84C289.242 208.993 287.873 208.267 286.446 207.673C284.513 206.82 282.537 206.073 280.525 205.434C280.516 205.415 280.504 205.399 280.488 205.386C280.473 205.372 280.455 205.362 280.436 205.357C280.417 205.351 280.396 205.349 280.376 205.352C280.356 205.354 280.337 205.361 280.32 205.372C280.25 205.276 280.161 205.196 280.059 205.135C279.957 205.075 279.844 205.036 279.727 205.021C278.704 204.866 277.682 204.299 276.659 204.113C276.6 204.039 276.522 203.983 276.434 203.95C276.345 203.918 276.25 203.91 276.158 203.927C275.6 203.547 274.969 203.29 274.307 203.174C273.284 202.782 272.343 202.369 271.361 201.966L271.208 201.873C270.359 201.502 269.664 200.841 268.784 200.552C268.733 200.356 268.58 200.305 268.416 200.253C267.741 199.748 267.025 199.293 266.371 198.726C264.949 197.405 263.632 195.973 262.433 194.443C262.406 194.29 262.347 194.143 262.261 194.014C262.174 193.884 262.063 193.774 261.932 193.69C261.932 193.246 261.513 192.998 261.339 192.658C260.991 191.863 260.541 191.11 260.132 190.336C260.061 190.068 259.999 189.799 259.928 189.531C259.949 189.431 259.943 189.327 259.913 189.229C259.882 189.132 259.828 189.044 259.754 188.974L259.171 186.765C259.2 186.69 259.209 186.61 259.198 186.53C259.188 186.451 259.157 186.375 259.11 186.311C259.11 186.033 259.007 185.754 258.967 185.486C258.497 182.057 259.128 178.567 260.766 175.527C260.766 175.527 260.828 175.527 260.869 175.465C261.043 176.59 260.869 177.725 261.104 178.85C261.229 179.698 261.47 180.525 261.82 181.306C262.119 182.014 262.637 182.606 263.297 182.993C263.957 183.38 264.723 183.541 265.481 183.453C266.355 183.417 267.21 183.177 267.976 182.751C268.408 182.624 268.818 182.432 269.193 182.183C272.907 179.891 276.032 176.748 278.316 173.009C280.139 170.444 281.203 167.409 281.384 164.258C282.227 166.812 282.397 169.543 281.875 172.183C280.895 176.509 278.688 180.454 275.524 183.535C274.245 184.877 272.803 186.043 271.433 187.261C269.766 188.385 268.14 189.562 266.371 190.532C265.962 190.759 266.299 190.914 266.432 191.058C267.718 192.497 269.275 193.662 271.014 194.484C272.505 195.197 274.142 195.54 275.791 195.486C277.44 195.432 279.052 194.983 280.494 194.175C281.155 193.919 281.778 193.572 282.345 193.143C285.859 190.623 288.615 187.173 290.312 183.174C291.502 180.692 292.108 177.965 292.081 175.207C291.988 174.82 291.988 174.417 292.081 174.031C292.798 175.694 293.217 177.472 293.318 179.283C293.478 183.708 292.184 188.062 289.637 191.667C288.43 193.434 287.093 195.107 285.638 196.672L281.742 200.202C282.365 200.439 282.877 200.676 283.419 200.831C284.765 201.296 286.191 201.479 287.609 201.371C289.028 201.263 290.41 200.865 291.672 200.202C291.948 200.067 292.244 199.954 292.5 199.799C295.226 198.066 297.349 195.52 298.575 192.513C298.678 192.068 298.897 191.658 299.209 191.327C299.587 193.28 299.46 195.299 298.841 197.188C298.087 199.357 296.923 201.359 295.415 203.081L293.369 205.145C293.63 205.217 293.883 205.314 294.126 205.434C296.242 206.666 298.143 208.242 299.751 210.098C299.989 210.49 300.289 210.839 300.641 211.13C300.978 210.924 301.019 210.532 301.172 210.222C304.843 202.8 305.775 194.302 303.801 186.249C302.403 180.687 300.117 175.393 297.031 170.574Z" fill="white"/>
<path d="M295.588 168.143V168.128L295.604 168.143H295.588Z" fill="white"/>
<path d="M243.35 162.297C243.472 162.667 243.519 163.059 243.486 163.448C243.453 163.837 243.343 164.215 243.161 164.56C242.979 164.904 242.73 165.208 242.428 165.452C242.126 165.696 241.778 165.876 241.406 165.98C241.033 166.085 240.643 166.112 240.26 166.059C239.876 166.007 239.508 165.876 239.176 165.676C238.844 165.475 238.556 165.208 238.33 164.892C238.103 164.575 237.943 164.216 237.858 163.835C237.699 163.114 237.819 162.359 238.196 161.726C238.572 161.092 239.175 160.629 239.88 160.432C240.585 160.234 241.338 160.318 241.984 160.665C242.63 161.012 243.119 161.596 243.35 162.297Z" fill="white"/>
<path d="M284.748 160.006C288.586 161.735 292.037 164.231 294.893 167.343C295.056 167.509 295.21 167.694 295.373 167.87C295.537 168.045 295.373 168.128 295.588 168.138C295.969 169.004 296.45 169.821 297.02 170.574C300.109 175.416 302.393 180.735 303.78 186.322C305.754 194.374 304.822 202.872 301.151 210.294C300.998 210.604 300.957 210.996 300.62 211.202C300.425 210.666 300.251 210.171 300.047 209.603C298.993 207.128 297.411 204.919 295.414 203.132C296.923 201.41 298.086 199.409 298.84 197.24C299.459 195.35 299.586 193.332 299.208 191.378C298.896 191.71 298.678 192.12 298.574 192.565C297.349 195.571 295.225 198.118 292.499 199.851C292.244 200.006 291.947 200.119 291.671 200.253C291.467 200.098 291.262 199.933 291.047 199.789C289.299 198.674 287.488 197.663 285.637 196.693C287.093 195.128 288.429 193.455 289.636 191.688C292.183 188.083 293.478 183.729 293.318 179.304C293.216 177.493 292.797 175.715 292.08 174.051C291.988 174.438 291.988 174.841 292.08 175.228C292.107 177.986 291.502 180.712 290.311 183.195C288.615 187.194 285.858 190.643 282.344 193.164C281.778 193.593 281.155 193.94 280.493 194.196L279.573 193.649C276.533 191.97 273.773 189.822 271.391 187.281C272.782 186.064 274.224 184.897 275.482 183.556C278.647 180.474 280.853 176.53 281.833 172.204C282.355 169.564 282.186 166.832 281.342 164.278C281.162 167.43 280.098 170.465 278.274 173.03C275.99 176.769 272.865 179.912 269.152 182.204C268.776 182.453 268.366 182.644 267.935 182.772C265.501 178.468 264.366 173.907 265.593 169.005C266.892 163.845 270.011 160.285 275.257 158.984C278.446 158.27 281.78 158.628 284.748 160.006Z" fill="#F6921E"/>
</g>
<path d="M139.127 392.423C145.614 399.017 148.858 408.085 148.858 419.626V472.928C148.858 473.08 148.797 473.227 148.689 473.335C148.582 473.442 148.435 473.503 148.283 473.503H121.146C120.993 473.503 120.847 473.442 120.739 473.335C120.631 473.227 120.571 473.08 120.571 472.928V423.228C120.571 417.947 119.339 413.833 116.875 410.885C114.414 407.953 110.963 406.472 106.503 406.472C101.581 406.472 97.6772 408.154 94.7919 411.517C91.9067 414.88 90.4703 419.324 90.4829 424.849V472.937C90.4829 473.09 90.4223 473.236 90.3144 473.344C90.2066 473.452 90.0603 473.512 89.9077 473.512H62.375V423.228C62.375 417.947 61.1744 413.833 58.7731 410.885C56.3687 407.971 52.946 406.472 48.5049 406.472C43.5704 406.472 39.6354 408.154 36.6998 411.517C33.7642 414.88 32.2933 419.324 32.287 424.849V473.503H4V386.492C3.99999 385.964 4.2093 385.457 4.58214 385.082C4.95498 384.707 5.461 384.496 5.98952 384.493H26.8088C27.2816 384.493 27.739 384.661 28.0998 384.967C28.4606 385.272 28.7014 385.696 28.7794 386.162L29.4583 390.358C29.5167 390.719 29.6736 391.057 29.9116 391.335C30.1496 391.613 30.4596 391.819 30.8075 391.932C31.1554 392.045 31.5277 392.06 31.8836 391.976C32.2394 391.891 32.565 391.71 32.8245 391.452C35.3292 389.028 38.2233 387.042 41.386 385.577C45.8157 383.522 50.6464 382.476 55.5295 382.513C60.9219 382.425 66.2496 383.696 71.0214 386.209C75.2236 388.42 78.7931 391.665 81.3933 395.638C81.449 395.725 81.5246 395.798 81.6139 395.85C81.7032 395.902 81.8036 395.932 81.9068 395.938C82.01 395.943 82.1131 395.924 82.2075 395.882C82.3018 395.84 82.3847 395.775 82.4494 395.695C89.5966 386.907 99.5913 382.513 112.434 382.513C123.748 382.513 132.646 385.816 139.127 392.423Z" fill="#EFEFEF"/>
<path d="M186.922 469.627C179.803 465.95 173.906 460.283 169.95 453.315C165.99 446.356 164.01 438.251 164.01 428.998C164.01 419.745 165.99 411.636 169.95 404.671C173.909 397.707 179.805 392.044 186.922 388.368C194.333 384.464 202.964 382.512 212.814 382.512C222.665 382.512 231.32 384.464 238.782 388.368C245.947 392.02 251.889 397.687 255.877 404.671C259.837 411.642 261.817 419.751 261.817 428.998C261.817 438.244 259.837 446.35 255.877 453.315C251.892 460.304 245.95 465.974 238.782 469.627C231.333 473.531 222.686 475.483 212.843 475.483C202.999 475.483 194.359 473.531 186.922 469.627ZM227.948 445.215C231.789 441.01 233.709 435.604 233.709 428.998C233.709 422.391 231.789 416.985 227.948 412.78C224.101 408.574 219.072 406.472 212.861 406.472C206.733 406.472 201.748 408.574 197.907 412.78C194.066 416.985 192.143 422.391 192.137 428.998C192.137 435.61 194.06 441.016 197.907 445.215C201.754 449.414 206.739 451.514 212.861 451.514C219.072 451.514 224.101 449.414 227.948 445.215Z" fill="#EFEFEF"/>
<path d="M367.394 388.349V469.646C367.395 470.152 367.296 470.653 367.104 471.121C366.911 471.589 366.628 472.014 366.27 472.372C365.913 472.731 365.488 473.015 365.021 473.209C364.554 473.403 364.053 473.502 363.547 473.502H344.5C344.048 473.508 343.609 473.352 343.263 473.061C342.917 472.77 342.687 472.365 342.614 471.918L341.747 466.968C341.695 466.624 341.55 466.301 341.326 466.035C341.102 465.769 340.81 465.569 340.48 465.459C340.15 465.349 339.796 465.332 339.457 465.41C339.118 465.488 338.808 465.659 338.56 465.903C335.698 468.608 332.377 470.782 328.754 472.324C323.713 474.463 318.285 475.538 312.809 475.483C301.872 475.483 293.162 471.878 286.681 464.667C280.201 457.457 276.957 447.488 276.951 434.759V388.349C276.951 387.326 277.357 386.345 278.08 385.622C278.803 384.899 279.784 384.493 280.807 384.493H301.391C302.412 384.495 303.39 384.902 304.112 385.625C304.833 386.348 305.238 387.328 305.238 388.349V433.137C305.238 438.907 306.649 443.411 309.471 446.649C312.294 449.886 316.169 451.508 321.097 451.514C323.558 451.607 326.009 451.147 328.269 450.167C330.529 449.188 332.541 447.715 334.156 445.857C337.457 442.085 339.107 437.191 339.107 431.176V388.349C339.107 387.326 339.513 386.345 340.236 385.622C340.959 384.899 341.94 384.493 342.963 384.493H363.547C364.053 384.493 364.554 384.592 365.021 384.786C365.488 384.98 365.913 385.264 366.27 385.623C366.628 385.981 366.911 386.406 367.104 386.874C367.296 387.342 367.395 387.843 367.394 388.349Z" fill="#EFEFEF"/>
<path d="M451.539 384.766C454.408 385.81 457.106 387.275 459.544 389.113C460.296 389.686 460.814 390.512 461.001 391.439C461.189 392.365 461.033 393.328 460.563 394.148L452.19 408.725C451.704 409.573 450.916 410.204 449.983 410.493C449.051 410.782 448.043 410.706 447.164 410.281C445.916 409.635 444.621 409.087 443.289 408.64C441.081 407.91 438.769 407.543 436.443 407.556C430.44 407.556 425.694 409.476 422.205 413.317C418.717 417.158 416.975 422.815 416.982 430.289V469.608C416.983 470.119 416.883 470.625 416.689 471.098C416.494 471.57 416.208 472 415.847 472.361C415.486 472.723 415.058 473.01 414.586 473.206C414.114 473.402 413.608 473.502 413.097 473.502H392.542C391.519 473.488 390.543 473.071 389.825 472.342C389.106 471.613 388.704 470.631 388.704 469.608V388.377C388.707 387.348 389.117 386.361 389.845 385.633C390.573 384.905 391.559 384.495 392.589 384.493H411.805C412.237 384.497 412.654 384.649 412.987 384.923C413.319 385.198 413.548 385.578 413.634 386.001L414.7 391.527C414.777 391.866 414.947 392.178 415.19 392.428C415.433 392.677 415.741 392.854 416.079 392.939C416.417 393.024 416.772 393.013 417.104 392.909C417.437 392.804 417.734 392.61 417.962 392.347C420.523 389.181 423.777 386.648 427.474 384.942C431.171 383.237 435.211 382.406 439.281 382.512C443.468 382.532 447.619 383.295 451.539 384.766Z" fill="#F6921E"/>
<path d="M539.455 384.493H557.483C558.437 384.492 559.375 384.728 560.214 385.181C561.054 385.633 561.767 386.288 562.29 387.085C562.813 387.882 563.129 388.797 563.21 389.747C563.291 390.697 563.134 391.652 562.754 392.526L512.224 508.597C511.78 509.625 511.046 510.5 510.111 511.115C509.176 511.729 508.082 512.057 506.963 512.058H489.387C488.433 512.059 487.495 511.822 486.656 511.37C485.817 510.917 485.103 510.263 484.58 509.465C484.057 508.668 483.741 507.753 483.66 506.804C483.579 505.854 483.736 504.898 484.116 504.024L496.977 474.417C497.581 473.02 497.608 471.44 497.053 470.023L466.069 391.432C465.767 390.663 465.657 389.832 465.749 389.01C465.841 388.189 466.131 387.403 466.596 386.719C467.06 386.035 467.684 385.475 468.414 385.087C469.144 384.699 469.957 384.495 470.783 384.493H489.755C490.932 384.493 492.081 384.854 493.045 385.529C494.01 386.204 494.744 387.158 495.148 388.264L504.04 412.6L511.677 435.315C511.831 435.765 512.12 436.156 512.506 436.435C512.891 436.714 513.353 436.866 513.829 436.871C514.305 436.877 514.77 436.734 515.162 436.464C515.553 436.194 515.851 435.809 516.014 435.362L524.227 412.563L534.127 388.047C534.563 386.993 535.302 386.093 536.251 385.46C537.199 384.827 538.315 384.49 539.455 384.493Z" fill="#F6921E"/>
</g>
<defs>
<filter id="filter0_d_60_2675" x="0" y="0" width="567.231" height="518.058" filterUnits="userSpaceOnUse" color-interpolation-filters="sRGB">
<feFlood flood-opacity="0" result="BackgroundImageFix"/>
<feColorMatrix in="SourceAlpha" type="matrix" values="0 0 0 0 0 0 0 0 0 0 0 0 0 0 0 0 0 0 127 0" result="hardAlpha"/>
<feOffset dy="2"/>
<feGaussianBlur stdDeviation="2"/>
<feComposite in2="hardAlpha" operator="out"/>
<feColorMatrix type="matrix" values="0 0 0 0 0 0 0 0 0 0 0 0 0 0 0 0 0 0 0.25 0"/>
<feBlend mode="normal" in2="BackgroundImageFix" result="effect1_dropShadow_60_2675"/>
<feBlend mode="normal" in="SourceGraphic" in2="effect1_dropShadow_60_2675" result="shape"/>
</filter>
<clipPath id="clip0_60_2675">
<rect width="313.092" height="315.991" fill="white" transform="translate(128.657 2)"/>
</clipPath>
</defs>
</svg>
