<svg xmlns="http://www.w3.org/2000/svg" viewBox="0 0 593.06 137.39"><title>123</title><g id="Layer_2" data-name="Layer 2"><g id="Layer_1-2" data-name="Layer 1"><path d="M231.12,52.12a3.54,3.54,0,0,0-.65,0,10.39,10.39,0,0,1-1.58-.06,7.75,7.75,0,0,1-1.52-.32c-.4-.14-.78-.33-1.18-.5.08-.07.15,0,.21,0a10.69,10.69,0,0,0,4,.45,7.2,7.2,0,0,0,4.93-2.37,4.83,4.83,0,0,0,1.06-2,3,3,0,0,0-1.63-3.65,5.75,5.75,0,0,0-2-.52c-.1,0-.13,0-.17.11a15.25,15.25,0,0,1-3.36,4.14,7,7,0,0,1-2.5,1.51,3,3,0,0,1-.88.17,1.75,1.75,0,0,1-2-2,3.64,3.64,0,0,1,1-2.14,7.15,7.15,0,0,1,2.78-1.85,13.8,13.8,0,0,1,3.91-.84.3.3,0,0,0,.29-.19,7,7,0,0,0,.8-3.1,4,4,0,0,0-3.25-4,6.19,6.19,0,0,0-4.14.56,9.27,9.27,0,0,0-3.6,3.18,15.24,15.24,0,0,0-2,4.44c-.46,1.57-.8,3.17-1.22,4.75a17.65,17.65,0,0,1-1.28,3.59,7.35,7.35,0,0,1-1.41,2,8.69,8.69,0,0,1-.75.61.16.16,0,0,0-.12.08c-.11,0-.16.1-.25.14s-.46.22-.68.34h-.07l-.31.07a3.51,3.51,0,0,1-.9.18,1.84,1.84,0,0,0-.47,0c0-.05-.07,0-.11,0a.37.37,0,0,0-.14,0,3.82,3.82,0,0,1-2.31-1.11,3.5,3.5,0,0,1-1-1.65,6,6,0,0,1-.27-1.26,7.31,7.31,0,0,1,.05-1.05s0,0,0-.08c.06-.19.13-.38.2-.57a3.21,3.21,0,0,1,.9-1.31,3.87,3.87,0,0,1,1.2-.69,3.29,3.29,0,0,1,.54-.14l.57-.11s.09,0,.1-.06,0-.06-.07-.08c-.24-.19-.48-.38-.71-.59a3.41,3.41,0,0,1-1.12-1.82c0-.16-.09-.31-.11-.46a6.38,6.38,0,0,1,.13-1.63,0,0,0,0,1,.06,0c.06.09,0,.2,0,.3a3.84,3.84,0,0,0,1.3,2.79,6.16,6.16,0,0,0,1.17.79,12.09,12.09,0,0,0,1.71.71c.42.16.86.24,1.28.4l0,.06a.69.69,0,0,1,0,1,.8.8,0,0,1-.5.13l-.29-.1h0a5.67,5.67,0,0,0-2.74-.61,2.76,2.76,0,0,0-1.58.54.31.31,0,0,0-.09.07,2.32,2.32,0,0,0-.66.77h0a3,3,0,0,0-.34,2.1l0,.24a.25.25,0,0,0,0,.14l.06.2a2.55,2.55,0,0,0,.52.92s0,.07.07.09l0,0a3.2,3.2,0,0,0,4.33.49,6.52,6.52,0,0,0,2.26-3.26,0,0,0,0,0,0,0,1.46,1.46,0,0,0,.18-.45c.16-.51.3-1,.43-1.53s.27-1.14.38-1.71a10.34,10.34,0,0,0,.26-1.23s0,0,0-.07a9.37,9.37,0,0,0,.29-1.16c.15-.62.31-1.23.49-1.84s.37-1.14.58-1.69v0a11,11,0,0,1,.57-1.2c.16-.28.33-.57.51-.84.31-.45.64-.89,1-1.31s.52-.51.74-.81c0-.07.12-.06.14-.12a3,3,0,0,0,.42-.37s.06,0,.06-.05a11.35,11.35,0,0,1,2.35-1.45l.44-.17c.38-.14.78-.24,1.18-.35l.1,0H227s0,0,.07,0,.15,0,.22,0a1.51,1.51,0,0,0,.35-.06c.33,0,.67,0,1,0a6.91,6.91,0,0,1,1.92.34.16.16,0,0,0,.12,0l.73.34s.06,0,.11.06l.74.54h0a5,5,0,0,1,1.44,2.25l.08.31c0,.13.05.26.07.39a8,8,0,0,1,.08.84c0,.32,0,.65,0,1l0,.12c-.06.29-.09.58-.18.87s-.12.47-.19.71a1.63,1.63,0,0,0-.17.57s0,0-.05,0l-.11.27c0,.08,0,.1.06.11l.5.07s.06,0,.09,0a4.44,4.44,0,0,1,.74.18,5.44,5.44,0,0,1,1.4.76,4.06,4.06,0,0,1,1.38,2,4.21,4.21,0,0,1,.15,1.27s0,.08,0,.11a7.65,7.65,0,0,1-.22,1.08.1.1,0,0,0,0,.1,5.49,5.49,0,0,1-.51,1l-.36.55-.08.09a.21.21,0,0,0-.08.06,4.7,4.7,0,0,1-.72.69,10.27,10.27,0,0,1-1.42.94c-.1.05-.24,0-.33.12s-.09,0-.12.06l-.14.06-.74.24-.27.07a6.63,6.63,0,0,1-.86.19C231.42,52.09,231.26,52.06,231.12,52.12Zm.09-8.84-.16,0a12.65,12.65,0,0,0-2.57.61,7.75,7.75,0,0,0-2.38,1.29A3.28,3.28,0,0,0,225,46.72c-.26.83.2,1.36,1.06,1.21a4,4,0,0,0,1.69-.8,14.21,14.21,0,0,0,2.74-2.79A11,11,0,0,0,231.21,43.28Z" fill="#1e1e1e"/><path d="M225.55,51.05c.4.34.77.7,1.14,1.08a9.71,9.71,0,0,1,.73,1v0c.17.29.33.58.49.88l.09.19s0,.07.06.1l0,.1.2.49a.06.06,0,0,0,0,.07l.21.71c.12.41.17.84.25,1.25l0,.14s0,.06,0,.08c0,.41.07.82.07,1.22l0,.15a.29.29,0,0,0,0,.09,10.4,10.4,0,0,1-.23,2.15v0a14,14,0,0,1-.47,1.56h0c-.09.21-.18.42-.29.62a3.28,3.28,0,0,1-.76,1.11.66.66,0,0,1-1.12-.3,6.41,6.41,0,0,0-.23-.78c0-.07-.07-.1-.1-.16a2,2,0,0,0-.76-1s0,0,0,0,0-.09-.08-.12l-.52-.35a5.73,5.73,0,0,0-1-.53c-.49-.21-1-.4-1.48-.56,0,0,0,0-.05,0a.22.22,0,0,0-.14-.09c-.27,0-.5-.18-.77-.22a.11.11,0,0,0-.12,0c-.13-.12-.31-.12-.46-.18l-.74-.3,0,0c-.21-.09-.39-.25-.6-.33a.12.12,0,0,0-.1-.07c-.16-.13-.34-.24-.5-.38a9,9,0,0,1-1-1.06.28.28,0,0,0-.12-.18c0-.11-.11-.17-.15-.26s-.2-.39-.3-.58l-.05-.2a.16.16,0,0,0,0-.13l-.15-.55a.14.14,0,0,0,0-.11l0-.2a4,4,0,0,1,.45-2.45s0,0,0,0h0c.05.27,0,.56.06.83a2.52,2.52,0,0,0,.18.61.89.89,0,0,0,.91.53,1.35,1.35,0,0,0,.62-.18.83.83,0,0,0,.3-.14,6.72,6.72,0,0,0,2.27-2.26A4.06,4.06,0,0,0,222,50.1a3.8,3.8,0,0,1,.12,1.95,5.59,5.59,0,0,1-1.57,2.81c-.32.33-.68.62-1,.92s-.82.56-1.25.8c-.11.06,0,.1,0,.13a3.48,3.48,0,0,0,1.14.84,2.59,2.59,0,0,0,2.36-.07,2.35,2.35,0,0,0,.46-.26,5.79,5.79,0,0,0,2-2.45,4.42,4.42,0,0,0,.44-2,.57.57,0,0,1,0-.29,3.69,3.69,0,0,1,.31,1.29,5,5,0,0,1-.91,3.06,10.74,10.74,0,0,1-1,1.23l-1,.87.42.16a2.66,2.66,0,0,0,2.05-.16l.21-.1a3.9,3.9,0,0,0,1.51-1.8.65.65,0,0,1,.16-.29,2.85,2.85,0,0,1-.1,1.45,4.26,4.26,0,0,1-.85,1.45l-.51.52a1.31,1.31,0,0,1,.19.07,5.51,5.51,0,0,1,1.4,1.15,1,1,0,0,0,.22.25c.08-.05.09-.15.13-.23a8.55,8.55,0,0,0,.65-5.9,12.76,12.76,0,0,0-1.68-3.88A3.37,3.37,0,0,1,225.55,51.05Z" fill="#1e1e1e"/><path d="M212.07,50.49a.72.72,0,0,1-.87-.49.71.71,0,1,1,1.37-.38A.71.71,0,0,1,212.07,50.49Z" fill="#1e1e1e"/><path d="M219.55,55.78c.35-.3.71-.59,1-.92a5.59,5.59,0,0,0,1.57-2.81A3.8,3.8,0,0,0,222,50.1a4.06,4.06,0,0,1-.77,2.15A6.72,6.72,0,0,1,219,54.51a.83.83,0,0,1-.3.14,4.45,4.45,0,0,1-.58-3.39,3.15,3.15,0,0,1,2.4-2.47,3.8,3.8,0,0,1,2.35.26,7.79,7.79,0,0,1,2.52,1.81l.12.13s0,.07.06.07h0a3.37,3.37,0,0,0,.36.61,12.76,12.76,0,0,1,1.68,3.88,8.55,8.55,0,0,1-.65,5.9c0,.08-.05.18-.13.23-.05-.13-.09-.27-.15-.4a4.51,4.51,0,0,0-1.15-1.59,4.26,4.26,0,0,0,.85-1.45,2.85,2.85,0,0,0,.1-1.45.65.65,0,0,0-.16.29,3.9,3.9,0,0,1-1.51,1.8l-.21.1-.15-.11a15,15,0,0,0-1.35-.76,10.74,10.74,0,0,0,1-1.23,5,5,0,0,0,.91-3.06,3.69,3.69,0,0,0-.31-1.29.57.57,0,0,0,0,.29,4.42,4.42,0,0,1-.44,2,5.79,5.79,0,0,1-2,2.45,2.35,2.35,0,0,1-.46.26l-.23-.14A8.14,8.14,0,0,1,219.55,55.78Z" fill="#f6921e"/><path d="M143.31,10.51Q153.63,21,153.63,39.36V95.89a.61.61,0,0,1-.61.61H124.24a.61.61,0,0,1-.61-.61V43.18q0-8.4-3.92-13.09c-2.61-3.11-6.27-4.68-11-4.68q-7.83,0-12.42,5.35T91.72,44.9v51a.61.61,0,0,1-.61.61H61.91V43.18q0-8.4-3.82-13.09C55.54,27,51.91,25.41,47.2,25.41q-7.85,0-12.52,5.35T30,44.9V96.5H0V4.22A2.12,2.12,0,0,1,2.11,2.1H24.19a2.12,2.12,0,0,1,2.09,1.77L27,8.32a2.11,2.11,0,0,0,3.57,1.16,33,33,0,0,1,9.08-6.23A35,35,0,0,1,54.65,0,34.07,34.07,0,0,1,71.08,3.92a29.64,29.64,0,0,1,11,10,.69.69,0,0,0,1.12.06Q94.57,0,115,0,133,0,143.31,10.51Z" fill="#1e1e1e"/><path d="M194,92.39A43.82,43.82,0,0,1,176,75.09q-6.3-11.07-6.3-25.79T176,23.5A43.86,43.86,0,0,1,194,6.21Q205.79,0,221.46,0T249,6.21A43.76,43.76,0,0,1,267.13,23.5q6.3,11.09,6.3,25.8t-6.3,25.79A43.72,43.72,0,0,1,249,92.39q-11.85,6.21-27.51,6.21T194,92.39ZM237.51,66.5q6.11-6.69,6.11-17.2t-6.11-17.2q-6.12-6.69-16-6.69-9.75,0-15.86,6.69t-6.12,17.2q0,10.52,6.12,17.2t15.86,6.68Q231.39,73.18,237.51,66.5Z" fill="#1e1e1e"/><path d="M385.4,6.19V92.41a4.08,4.08,0,0,1-4.08,4.09h-20.2a2,2,0,0,1-2-1.68l-.92-5.25a2,2,0,0,0-3.38-1.13,35.21,35.21,0,0,1-10.4,6.81,42.18,42.18,0,0,1-16.91,3.35q-17.4,0-27.71-11.47T289.48,55.41V6.19a4.09,4.09,0,0,1,4.09-4.09H315.4a4.09,4.09,0,0,1,4.08,4.09v47.5q0,9.18,4.49,14.33t12.33,5.16a17.48,17.48,0,0,0,13.85-6q5.25-6,5.25-15.57V6.19a4.09,4.09,0,0,1,4.09-4.09h21.83A4.08,4.08,0,0,1,385.4,6.19Z" fill="#1e1e1e"/><path d="M474.64,2.39A32.62,32.62,0,0,1,483.13,7a4.13,4.13,0,0,1,1.08,5.34L475.33,27.8A4.09,4.09,0,0,1,470,29.45a28.94,28.94,0,0,0-4.11-1.74,22.71,22.71,0,0,0-7.26-1.15q-9.55,0-15.1,6.11t-5.54,18V92.37a4.12,4.12,0,0,1-4.12,4.13H412.07A4.13,4.13,0,0,1,408,92.37V6.22a4.13,4.13,0,0,1,4.12-4.12H432.5a2,2,0,0,1,1.94,1.6l1.13,5.86a2,2,0,0,0,3.46.87A28.13,28.13,0,0,1,461.64,0,37.52,37.52,0,0,1,474.64,2.39Z" fill="#f6921e"/><path d="M567.88,2.1H587a6.09,6.09,0,0,1,5.59,8.52L539,133.72a6.08,6.08,0,0,1-5.58,3.67H514.78a6.09,6.09,0,0,1-5.59-8.52l13.64-31.4a6.12,6.12,0,0,0,.08-4.66L490.05,9.46a5.39,5.39,0,0,1,5-7.36h20.12a6.09,6.09,0,0,1,5.72,4l9.43,25.81L538.42,56a2.44,2.44,0,0,0,4.6.05l8.71-24.18,10.5-26A6.1,6.1,0,0,1,567.88,2.1Z" fill="#f6921e"/></g></g></svg>